<?xml version="1.0" encoding="utf-8"?>
<!-- Generator: Adobe Illustrator 22.0.0, SVG Export Plug-In . SVG Version: 6.00 Build 0)  -->
<svg version="1.1" id="Layer_1" xmlns="http://www.w3.org/2000/svg" xmlns:xlink="http://www.w3.org/1999/xlink" x="0px" y="0px"
	 viewBox="0 0 367 247.4" style="enable-background:new 0 0 367 247.4;" xml:space="preserve">
<style type="text/css">
	.st0{fill:#FFFFFF;}
</style>
<g id="NEH9F2.tif">
	<g>
		<path class="st0" d="M80.9,86.1c-3,0.2-5.5,0.5-8,0.6c-13,0.4-22.1-5.5-27.2-17.5c-3.8-9-5.5-18.5-6.4-28.1
			c-0.3-3.6-0.5-7.2-0.3-10.7c0.1-1.3,1.2-3.7,1.9-3.7c2.2-0.1,2.1,2.2,2.3,3.8c0.6,5,0.7,10.2,1.6,15.1c1.2,6.5,2.6,13,4.5,19.4
			c2,7.2,7.1,12.2,13.3,15.9c1.8,1.1,4.3,1.2,6.5,1.2c3.7,0.1,7.3-0.3,11-0.4c1.5,0,2.2-0.6,2.7-2c1.4-3.9,2.9-7.8,4.5-11.6
			c0.4-1.1,1-2.3,1.9-2.9c1.1-0.8,2.9-1.9,3.8-1.5c1.3,0.5,2.3,2.2,2.9,3.6c0.4,0.9,0.2,2.4-0.3,3.4c-0.9,2.2-1.6,4.8-3.2,6.4
			c-5.6,5.5-6.5,12.2-6.5,19.5c0,5.3-0.8,10.6-1.1,15.9c-0.2,3.3,0.3,3.5,3.4,2.6c18.5-5.5,37-11,55.5-16.5c1.9-0.6,3.9-0.9,5.9-1.1
			c2.7-0.3,4.8-1.5,6.2-3.6c1.5-2.1,2.9-4.2,4.1-6.5c3.3-6.2,7.3-11.7,12.3-16.5c1.1-1.1,2.5-1.8,3.7-2.7c2.2,3.2-2.4,14.6-6.9,17.3
			c-0.2-1-0.4-1.9-0.6-2.8c-0.3-1.7-1.7-2.3-2.5-0.9c-1.5,2.7-2.5,5.7-3.4,8.7c-0.1,0.4,1.3,1.9,2,1.9c5,0.2,9.8-0.1,13.6-4.1
			c1-1.1,3-2,4.4-1.8c7,0.7,13.7-1.3,20.5-2.1c4-0.5,8.1-1,12.2-1.2c5.2-0.3,8.9-2.3,10.6-7.5c0.4-1.3,1.2-2.5,2.1-3.6
			c1.4-1.8,3.7-2.2,5.1-0.9c1.8,1.7,1,3.2-0.5,4.7c-0.6,0.6-1.1,1.5-1.4,2.3c-0.8,2.5,0.3,3.6,2.8,3.4c4.3-0.4,8.6-0.7,12.9-0.8
			c1.9,0,2.9-1,3.6-2.5c1-2.3,2-4.6,3-6.9c0.3-0.7,0.5-1.5,1.1-1.9c0.9-0.7,2.1-1,3.1-1.5c0.2,1.1,0.7,2.2,0.5,3.2
			c-0.2,1.3-0.8,2.5-1.5,3.7c-1.8,3.3-1.3,4.7,2.5,5.3c4.2,0.7,8.4,1.1,12.6,1.4c4,0.3,8,0.4,12,0.7c1.7,0.2,2.5-0.3,3.2-1.9
			c2.2-4.7,4.5-9.3,6.9-13.8c0.7-1.3,2.1-2.3,3.2-3.4c0.3,0.2,0.6,0.3,0.9,0.5c-0.1,1,0.1,2.1-0.2,3c-1.1,2.8-2.3,5.5-3.6,8.2
			c-1.1,2.5-2.4,4.9-3.3,7.5c-0.8,2.1,0,3,2.1,2.5c2-0.4,3.6-0.3,5.2,1.4c1.3,1.4,2.9,0.8,3.9-0.4c1.4-1.6,2.6-3.5,3.7-5.3
			c1.2-2.1,2.2-4.3,3.4-6.4c0.5-0.8,1.4-1.4,2.4-1.8c-0.3,5.8-4.4,9.7-7.2,14.6c3.4,1.8,6.7,3.8,10.2,5.4
			c8.4,3.9,13.5,10.6,16.8,18.9c1.8,4.5,1.2,6.6-2.5,9.6c-7.5,6.1-16.2,10.1-25,13.9c-1.9,0.8-3.6,0.7-4.9-1.5
			c-1.4-2.2-3.8-2.5-6.7-1c-1.7,0.9-3.2,2.1-4.8,3.1c-1.5,0.9-3,1.7-4.7,2.7c-1.5-2.8-1.2-5.6-0.6-8c1.4-5.5,3.1-10.9,5-16.2
			c1.3-3.7,2.7-7.4,4.6-10.8c1.5-2.7,3.8-5.1,5.7-7.6c0.3,0.2,0.5,0.3,0.8,0.5c-0.6,3-1.2,6.1-2,9.7c2.5-2.2,4.6-4,6.7-5.8
			c0.2,0.1,0.4,0.3,0.6,0.4c-1.4,1.8-2.5,3.9-4.1,5.5c-4.2,4.3-7.7,9-10.3,14.4c-0.7,1.5-1.4,3-2,4.6c-0.3,0.7-0.7,1.6-0.5,2.1
			c0.4,0.9,1.2,1.7,1.9,2.5c0.6-0.8,1.4-1.4,1.7-2.3c0.3-1.1,0-2.3,0.3-3.4c0.2-0.6,1-1.3,1.6-1.2c0.5,0,1,0.9,1.3,1.5
			c0.5,0.8,1.1,2.4,1.5,2.4c1-0.1,2.3-0.7,2.8-1.5c0.8-1.4,1.4-3,1.6-4.6c0.7-4.7,3.1-7.3,6.7-7.3c2.2,0,2.8,0.6,1.9,2.7
			c-1.3,3.1-2.9,6.2-4.3,9.3c-0.7,1.6-1.1,3.4-1.8,5.8c1.9-0.6,3.2-0.7,4.2-1.3c6.3-3.6,12.7-7.2,18.9-11.2c4.1-2.6,4.3-5,1.2-8.7
			c-3.2-3.8-6.8-7.3-10.4-10.8c-2.9-2.8-6.4-4.4-10.4-5.1c-2.8-0.5-5.7-1.2-7.5-3.9c-0.3-0.5-1.3-0.5-2-0.7
			c-1.8-0.4-3.7-0.5-5.4-1.2c-2-0.8-3.6-0.5-4.4,1.4c-2.2,5.1-4.2,10.3-6.2,15.4c-1.1,2.8-2.2,5.7-3.4,8.4c-0.5,1.2-1.4,2.3-2,3.4
			c-1.7,2.9-1.3,5.5,1,7.9c2.4,2.5,2,5.1-0.9,6.8c-1,0.6-2.8,0.9-3.6,0.4c-0.9-0.5-1.6-2.3-1.4-3.3c0.5-2.5,0-4.5-1.1-6.7
			c-0.5-1-0.5-2.6,0-3.7c1.9-4.6,3.9-9.2,6-13.7c2-4.2,4.2-8.3,6.3-12.5c0.7-1.5,1.5-2.9,2.5-4.9c-2.9-0.5-5.3-1.1-7.7-1.3
			c-6-0.4-12-0.6-18-0.7c-1.2,0-2.5,0.3-3.7,0.6c-1.9,0.5-2.5,1.6-2.5,3.7c0,2.9-0.7,5.7-1.1,8.6c-0.6,3.8-1,7.5-1.7,11.3
			c-0.5,2.6-1.4,5.1-2.2,7.6c-0.6,1.8-1.5,3.5-1.9,5.4c-0.4,2.2,1.4,3.6,3.4,2.6c1.4-0.7,2.8-1.9,3.7-3.2c1.8-2.7,3.3-5.6,4.9-8.4
			c0.3-0.5,0.6-1.1,1-1.4c1-0.6,2.1-1,3.1-1.5c0.2,1.1,0.8,2.4,0.4,3.3c-0.8,2-2.2,3.7-3.3,5.5c-1.1,1.8-2.5,3.5-2,6.3
			c1-0.6,1.7-1,2.3-1.5c0.9-0.9,1.6-2,2.6-2.7c1-0.7,2.2-1.1,3.3-1.6c0.1,1.3,0.6,2.6,0.3,3.8c-0.6,2.6-1.9,4.6-5,5.2
			c-1.6,0.3-3.1,1.5-4.5,2.6c-1.6,1.3-2.9,1.5-4.6,0.1c-1.6-1.3-3.6-2.1-5.2-3.2c-0.9-0.6-1.8-1.5-2.3-2.5c-0.8-1.4-1.6-1.4-2.6-0.5
			c-1.2,1.1-2.3,2.4-3.5,3.5c-2.7,2.6-5.7,5-9.7,3.5c-4.2-1.5-7.1-4.4-7.6-9c-0.4-3.4-0.4-6.8-0.7-10.2c-0.1-0.8-0.4-1.7-0.8-3
			c-6.2,6.6-7.7,15.8-14.3,21.3c-0.3-0.1-0.6-0.2-1-0.2c0-1.1-0.3-2.4,0.1-3.3c1.4-3.4,3.1-6.6,4.7-9.9c4-8.4,8-16.8,12-25.2
			c0.4-0.9,0.6-1.9,0.9-2.9c0.8-3.6,0.1-4.3-3.6-3.6c-4.9,1-9.8,2-14.7,3c-5.9,1.3-11.9,2.5-17.8,3.8c-5.3,1.2-7.9,4.6-8.4,9.8
			c-0.5,4.6-2.2,8.6-4.4,12.6c-1.1,2.1-1.8,4.4-2.4,6.7c-0.2,0.8,0.4,2.2,1,2.5c0.5,0.3,2-0.2,2.5-0.8c1.7-1.8,3.2-3.9,4.7-5.8
			c1.6-2,3.1-4.1,4.9-6c2-2.1,3.8-1.6,4.4,1.3c0.9,4.2,0.2,8.1-2.1,11.7c-1.4,2.2-2.6,4.4-3.9,6.7c-1.1,2-2.8,3.2-4.9,2.3
			c-2.4-1-4.7-2.6-6.9-4.2c-0.9-0.6-1.4-1.6-2.1-2.5c-1.4-1.7-2.7-2.3-4.8-0.7c-1.3,0.9-3.2,1.1-4.9,1.3c-1.6,0.2-2-1-1.5-2.3
			c0.9-2.1,2.5-3.2,4.8-3.3c4.3-0.2,4.1-0.3,5.4-4.4c1.1-3.6,2.6-7,3.9-10.5c1.2-3.1,2.4-6.2,3.5-9.3c0.3-0.8,0.3-2-0.2-2.5
			c-0.4-0.4-1.7-0.2-2.5,0c-2.4,0.6-4.8,1.4-7.2,2c-2.2,0.6-3.9,1.8-4.9,3.9c-3.2,6.5-4.4,13.4-5.1,20.5c-0.3,3.5-0.5,7-1,10.4
			c-0.2,1.1-1.3,2.1-2,3.1c-0.9-1-2.4-2-2.5-3c-0.2-3.4-0.3-6.8,0.3-10.1c1-5.4,2.5-10.7,4-16c1.3-4.6,0.9-5.5-3.6-4.4
			c-8.5,2.2-17,4.8-25.4,7.2c-10.9,3.1-21.7,6.3-32.6,9.5c-3.9,1.1-4.9,2.7-4.5,6.7c0.4,5.1,3,8.3,7.5,10.6
			c10.5,5.3,16.1,14.3,18.6,25.5c0.3,1.1,0.3,2.3,0.2,3.5c-0.2,5.1-4.3,7.6-8.7,4.9c-3-1.9-5.9-4.5-8.1-7.3
			c-4.9-6.2-8.5-13.1-10.4-20.8c-0.3-1-0.7-2-1-3.1c-0.7-2.1-2.3-2.8-4.3-2.4c-18,4.1-33.8,12-45.2,27.2c-7.8,10.5-8,22.1-5,34.1
			c1.8,7.4,4.6,14.4,9.6,20.4c6.6,7.8,14.8,10.8,24.8,8.5c1.7-0.4,3.2-1.3,4.8-2c1.3-0.6,2.9-1.7,3.9,0.3c0.9,1.8,0.2,3.4-1.7,4
			c-2.8,1-5.6,2.1-8.6,2.6c-10.2,1.7-18.9-1.5-25.6-9.1c-13.9-15.8-17.7-33.9-10.8-53.9c2.9-8.3,9.3-14.3,16-19.8
			c9.2-7.6,19.3-13.3,31.2-15.3c2-0.3,4.1-0.5,6.2-0.6c1.6-0.1,2.4-1,2.6-2.5c0.1-0.6,0.3-1.2,0.1-1.7c-0.5-1.8-0.5-4.1-1.7-5.2
			c-1.6-1.4-3.4,0.6-5.2,1.2c-2.4,0.9-5,1.5-7.6,2c-0.6,0.1-1.4-0.6-2.1-0.9c0.4-0.8,0.6-2,1.2-2.2c2.9-1.1,5.9-2.2,8.9-2.7
			c3.8-0.6,4.1-0.4,4.4-4.3C79.9,106.2,80.3,96.3,80.9,86.1z M237.4,84.2c-2.3,0.1-5.1,0.3-7.9,0.5c-1.7,0.2-2.9,0.8-3.3,2.8
			c-0.6,3.3-1.5,6.5-2.3,9.7c-2.4,8.7-2.6,17.4,0.3,26.1c1.7,5,5.5,5.9,9.1,2.1c2.2-2.2,4.1-4.9,5.4-7.7c4.6-9.4,7.5-19.3,9.1-29.7
			c0.4-2.3-0.7-3.1-2.6-3.2C242.8,84.5,240.4,84.4,237.4,84.2z M107,161.7c-0.2-0.8-0.4-2.2-0.8-3.6c-2.1-6.4-5.9-11.7-10.4-16.5
			c-1-1.1-2.1-2.2-3.3-3.1c-0.7-0.5-1.7-0.6-2.6-0.9c-0.3,0.9-0.8,1.8-0.7,2.7c0.1,1.5,0.4,3,1.1,4.3c3,5.6,6.2,11.2,9.4,16.7
			c0.8,1.4,2.2,2.6,3.6,3.3C105.6,165.9,107,164.9,107,161.7z M183.2,117.4c-4.2,1.8-6.5,5.3-8.2,9.2c-0.3,0.7-0.1,1.7-0.1,2.6
			c0.9-0.2,2.2,0,2.7-0.5C180.8,125.6,182.7,121.8,183.2,117.4z M91.6,73c0-0.3-0.1-0.5-0.1-0.8c-0.6-0.2-1.3-0.7-1.8-0.5
			c-0.8,0.3-1.4,1-2,1.6c0.5,0.4,1,1.2,1.4,1.1C90,74.2,90.8,73.5,91.6,73z"/>
		<path class="st0" d="M118,114.4c1.9,0.3,3.8,0.4,5.6,1.1c0.8,0.3,1.8,2,1.6,2.7c-0.7,3.1-0.1,5.8,2,8c2.3,2.3,5.3,2,8.2,1.2
			c0.7-0.2,1.4-0.7,2.1-0.8c1.3-0.2,3.4-0.7,3.7-0.1c1,1.5,1.5,3.5,1.8,5.4c0,0.4-2.2,1.7-3.1,1.4c-8.1-2.7-15.8-0.8-23.4,2
			c-6.3,2.3-11.4-0.2-16-4c-2.7-2.3-2.7-5.7-0.4-8.8c3.8-5,9.2-7.2,15.3-7.8c0.8-0.1,1.7,0,2.5,0C118,114.6,118,114.5,118,114.4z
			 M112.2,131.2c2.1-0.3,4.1-0.4,6.1-0.9c3.2-0.9,4.1-2.7,3.1-5.8c-1.3-4.4-4.2-6.8-8.1-6.8c-4.1,0-8.5,3.3-9.6,7.1
			c-0.7,2.5,0,4.3,2.6,5.1C108.2,130.6,110.3,130.8,112.2,131.2z"/>
		<path class="st0" d="M309.9,86.1c1.3-3.4,2.7-6.7,4-10.1c1.9-4.9,3.6-10,5.8-14.8c1.1-2.4,2.7-4.7,4.4-6.8
			c1.1-1.3,2.8-1.5,4.3-0.3c1.5,1.3,1,2.8,0.2,4.3c-4,7-7.9,14-11.9,21c-1.6,2.8-3.4,5.3-6,7.1C310.5,86.4,310.2,86.2,309.9,86.1z"
			/>
		<path class="st0" d="M298.6,78.5c0.9-2.7,1.6-5.5,2.8-8.1c1.7-3.8,3.6-7.4,5.6-11.1c0.9-1.6,1.4-3.1-0.7-4.1
			c-1.7-0.8-1.5-1.9-0.5-3.2c2-2.5,4.4-4.3,7.6-4.7c2.3-0.3,3.1,0.7,2.3,2.8c-0.3,0.9-0.7,1.9-1.2,2.7c-4.4,7.9-8.8,15.8-13.3,23.7
			c-0.5,0.9-1.2,1.6-1.9,2.4C299.1,78.8,298.9,78.6,298.6,78.5z"/>
		<path class="st0" d="M183.6,84.2c-1.9-0.4-2.6-1.1-2.1-2.6c2.4-6.6,5.3-12.9,10.2-18c0.6-0.7,2.1-0.6,3.1-0.8
			c0.1,1,0.6,2.2,0.2,2.9c-2.5,5.2-5.1,10.4-7.9,15.5C186.5,82.4,184.9,83.2,183.6,84.2z"/>
		<path class="st0" d="M133,121.5c-0.2-0.5-0.4-0.7-0.3-0.8c0.9-3.4,0.2-5.8-3.7-6.6c-1.2-0.3-1.5-1.5-0.2-2.2c2.4-1.2,5-1,7.1,0.5
			c1,0.7,1.7,2.7,1.5,4C137.2,118.8,135.9,120.9,133,121.5z"/>
	</g>
</g>
</svg>
